<svg xmlns="http://www.w3.org/2000/svg" width="16.534" height="19.4" viewBox="0 0 16.534 19.4">
  <g id="avatar" transform="translate(0.101 0.1)">
    <g id="Group_2378" data-name="Group 2378">
      <path id="Path_2187" data-name="Path 2187" d="M141.162,10.346h.127a3.669,3.669,0,0,0,2.8-1.213c1.531-1.726,1.276-4.684,1.248-4.966A4.056,4.056,0,0,0,143.412.561,4.421,4.421,0,0,0,141.273,0h-.068a4.428,4.428,0,0,0-2.139.545,4.059,4.059,0,0,0-1.952,3.622c-.028.282-.282,3.24,1.248,4.966A3.654,3.654,0,0,0,141.162,10.346Zm-2.986-6.079c0-.012,0-.024,0-.032.131-2.851,2.155-3.157,3.022-3.157h.048c1.074.024,2.9.461,3.022,3.157a.077.077,0,0,0,0,.032c0,.028.282,2.732-.982,4.155a2.606,2.606,0,0,1-2.048.851h-.04a2.6,2.6,0,0,1-2.044-.851C137.9,7.006,138.172,4.29,138.176,4.266Z" transform="translate(-133.065)" fill="#92a1b1" stroke="#92a1b1" stroke-width="0.2"/>
      <path id="Path_2188" data-name="Path 2188" d="M52.4,264.189v-.012c0-.032,0-.064,0-.1-.024-.787-.076-2.628-1.8-3.217l-.04-.012a11.472,11.472,0,0,1-3.3-1.5.537.537,0,0,0-.616.879,12.384,12.384,0,0,0,3.63,1.658c.926.33,1.03,1.32,1.058,2.227a.8.8,0,0,0,0,.1,7.218,7.218,0,0,1-.083,1.229,14.633,14.633,0,0,1-7.01,1.63,14.717,14.717,0,0,1-7.014-1.634,6.833,6.833,0,0,1-.083-1.229c0-.032,0-.064,0-.1.028-.907.131-1.9,1.058-2.227a12.5,12.5,0,0,0,3.63-1.658.537.537,0,1,0-.616-.879,11.347,11.347,0,0,1-3.3,1.5l-.04.012c-1.726.592-1.777,2.433-1.8,3.217a.8.8,0,0,1,0,.1v.012a6.1,6.1,0,0,0,.2,1.8.51.51,0,0,0,.207.25,15.039,15.039,0,0,0,7.761,1.9,15.085,15.085,0,0,0,7.761-1.9.532.532,0,0,0,.207-.25A6.4,6.4,0,0,0,52.4,264.189Z" transform="translate(-36.073 -248.936)" fill="#92a1b1" stroke="#92a1b1" stroke-width="0.2"/>
    </g>
  </g>
</svg>
