<svg xmlns="http://www.w3.org/2000/svg" width="37.008" height="30.041" viewBox="0 0 37.008 30.041">
  <g id="Group_2563" data-name="Group 2563" transform="translate(-176.983 -873.349)">
    <g id="Group_2327" data-name="Group 2327" transform="translate(10.484 190.661)">
      <g id="dish" transform="translate(166.5 696.465)">
        <g id="Group_2326" data-name="Group 2326" transform="translate(0 0)">
          <g id="Group_2325" data-name="Group 2325">
            <path id="Path_1382" data-name="Path 1382" d="M23.075,341.333H.491a.491.491,0,0,0-.491.491v.492a3.72,3.72,0,0,0,.627,2.07,1.959,1.959,0,0,0,1.634.875H21.3a1.961,1.961,0,0,0,1.634-.875,3.722,3.722,0,0,0,.627-2.07v-.492A.491.491,0,0,0,23.075,341.333Z" transform="translate(0 -329.55)" fill="#fff"/>
            <path id="Path_1383" data-name="Path 1383" d="M36.77,96.134H56.014a.491.491,0,0,0,.481-.589,10.336,10.336,0,0,0-8.756-8.15,1.473,1.473,0,1,0-2.7,0,10.336,10.336,0,0,0-8.756,8.15.491.491,0,0,0,.481.589Zm2.393-2.7A8.335,8.335,0,0,1,42.736,90.1a.491.491,0,0,1,.431.882,7.365,7.365,0,0,0-3.155,2.941.491.491,0,0,1-.85-.492Z" transform="translate(-34.609 -85.333)" fill="#fff"/>
          </g>
        </g>
      </g>
    </g>
    <g id="kitchen" transform="translate(213.993 881.115) rotate(110)">
      <path id="Path_2962" data-name="Path 2962" d="M23.1.584a2.15,2.15,0,0,0-2.946,0L12.974,7.462a.646.646,0,0,0,0,.941l.491.47L11.5,10.756,9.045,8.4A2.15,2.15,0,0,0,6.1,8.4L.207,14.05a.647.647,0,0,0,0,.941l7.857,7.53a.716.716,0,0,0,.982,0l5.892-5.647a1.94,1.94,0,0,0,0-2.824L12.482,11.7l1.964-1.883.491.47a.716.716,0,0,0,.982,0L23.1,3.408a1.941,1.941,0,0,0,0-2.824ZM4.135,14.991a.646.646,0,0,1,0-.941l2.946-2.824a.716.716,0,0,1,.982,0,.646.646,0,0,1,0,.941L5.117,14.991a.716.716,0,0,1-.982,0ZM6.1,16.874a.646.646,0,0,1,0-.941l2.946-2.824a.717.717,0,0,1,.982,0,.647.647,0,0,1,0,.941L7.081,16.874A.717.717,0,0,1,6.1,16.874Zm5.892-.941L9.045,18.756a.716.716,0,0,1-.982,0,.646.646,0,0,1,0-.941l2.946-2.824a.716.716,0,0,1,.982,0,.646.646,0,0,1,0,.941Z" transform="translate(0 0)" fill="#fff"/>
    </g>
  </g>
</svg>
