<svg xmlns="http://www.w3.org/2000/svg" width="15.569" height="20.911" viewBox="0 0 15.569 20.911">
  <g id="clipboard" transform="translate(-51.988 -0.001)">
    <g id="Group_2567" data-name="Group 2567" transform="translate(51.988 0.001)">
      <g id="Group_2566" data-name="Group 2566" transform="translate(0 0)">
        <path id="Path_2963" data-name="Path 2963" d="M142.564,1.585h-1.53a.43.43,0,0,1-.4-.322A1.557,1.557,0,0,0,139.048,0a1.584,1.584,0,0,0-1.584,1.288.4.4,0,0,1-.4.3h-1.476V4.27h6.979Z" transform="translate(-131.29 -0.001)" fill="#a6a5a5"/>
        <path id="Path_2964" data-name="Path 2964" d="M67.556,78.616V63.236a1.1,1.1,0,0,0-1.1-1.1q-.042,0-.083,0H64.067V63.5c0,.215-.134.51-.349.51H55.8c-.215,0-.322-.3-.322-.51V62.136H53.169a1.1,1.1,0,0,0-1.178,1.017q0,.042,0,.083v15.38a1.208,1.208,0,0,0,1.18,1.235H66.375a1.208,1.208,0,0,0,1.181-1.234ZM57.6,75.073,55.5,77.033a.376.376,0,0,1-.268.134.43.43,0,0,1-.3-.134l-1.1-1.127a.409.409,0,0,1,.59-.564l.805.859,1.825-1.718a.4.4,0,0,1,.537.591Zm0-4.295h0L55.5,72.738a.376.376,0,0,1-.268.134.43.43,0,0,1-.3-.134l-1.1-1.127a.409.409,0,0,1,.59-.564l.805.859,1.825-1.718a.4.4,0,0,1,.537.591Zm0-4.295L55.5,68.443a.376.376,0,0,1-.268.134.43.43,0,0,1-.3-.134l-1.1-1.127a.409.409,0,0,1,.59-.564l.805.859,1.825-1.718a.4.4,0,0,1,.537.591ZM65.409,76.63H59.235a.4.4,0,1,1,0-.805h6.174a.4.4,0,0,1,0,.805Zm0-4.295H59.235a.4.4,0,1,1,0-.805h6.174a.4.4,0,0,1,0,.805Zm0-4.295H59.235a.4.4,0,0,1,0-.805h6.174a.4.4,0,0,1,0,.805Z" transform="translate(-51.988 -58.94)" fill="#a6a5a5"/>
      </g>
    </g>
  </g>
</svg>
