<svg xmlns="http://www.w3.org/2000/svg" width="15.505" height="15.5" viewBox="0 0 15.505 15.5">
  <path id="mobile-icon" d="M3.94,9.971a15.914,15.914,0,0,0,5.293,4.146,8.238,8.238,0,0,0,2.962.877c.071,0,.14.006.211.006a2.453,2.453,0,0,0,1.9-.817.068.068,0,0,0,.012-.016,8.009,8.009,0,0,1,.6-.622c.146-.14.3-.286.438-.435a1.5,1.5,0,0,0-.006-2.235L13.485,9.007a1.512,1.512,0,0,0-1.094-.5,1.563,1.563,0,0,0-1.107.5l-1.113,1.113c-.1-.059-.208-.112-.308-.162a3.843,3.843,0,0,1-.342-.186A11.776,11.776,0,0,1,6.709,7.208a6.782,6.782,0,0,1-.951-1.517c.292-.264.566-.541.83-.811.093-.1.19-.193.286-.289A1.593,1.593,0,0,0,7.39,3.472a1.581,1.581,0,0,0-.516-1.119l-.926-.926c-.109-.109-.211-.214-.317-.323C5.426.892,5.211.674,5,.479A1.55,1.55,0,0,0,3.906,0,1.6,1.6,0,0,0,2.8.482L1.637,1.644A2.388,2.388,0,0,0,.925,3.173,5.752,5.752,0,0,0,1.357,5.66,14.466,14.466,0,0,0,3.94,9.971ZM1.683,3.239a1.644,1.644,0,0,1,.494-1.057L3.334,1.026A.837.837,0,0,1,3.906.761a.794.794,0,0,1,.559.27c.208.193.4.395.615.609.106.109.214.218.323.329L6.33,2.9a.844.844,0,0,1,.292.581.844.844,0,0,1-.292.581c-.1.1-.193.2-.289.292-.289.292-.559.569-.858.833L5.168,5.2a.608.608,0,0,0-.155.69c0,.009.006.016.009.025A7.315,7.315,0,0,0,6.112,7.69a12.429,12.429,0,0,0,3,2.729,4.449,4.449,0,0,0,.41.224,3.844,3.844,0,0,1,.342.186l.034.019a.65.65,0,0,0,.3.078.659.659,0,0,0,.463-.211l1.162-1.162a.823.823,0,0,1,.569-.277.781.781,0,0,1,.55.277l1.874,1.871a.75.75,0,0,1-.009,1.172c-.131.14-.267.274-.413.413a8.951,8.951,0,0,0-.65.674,1.706,1.706,0,0,1-1.333.566c-.053,0-.109,0-.162-.006a7.484,7.484,0,0,1-2.679-.8A15.118,15.118,0,0,1,4.53,9.492,13.846,13.846,0,0,1,2.075,5.405,5.013,5.013,0,0,1,1.683,3.239Z" transform="translate(-0.663 0.25)" fill="#92a1b1" stroke="#92a1b1" stroke-width="0.5"/>
</svg>
